<svg width="24" height="24" viewBox="0 0 24 24" fill="none" xmlns="http://www.w3.org/2000/svg">
<path d="M21.25 5.25H12.25L10 3H3.25C2.0125 3 1.01125 4.0125 1.01125 5.25L1 18.75C1 19.9875 2.0125 21 3.25 21H21.25C22.4875 21 23.5 19.9875 23.5 18.75V7.5C23.5 6.2625 22.4875 5.25 21.25 5.25ZM15.625 8.625C16.8625 8.625 17.875 9.6375 17.875 10.875C17.875 12.1125 16.8625 13.125 15.625 13.125C14.3875 13.125 13.375 12.1125 13.375 10.875C13.375 9.6375 14.3875 8.625 15.625 8.625ZM20.125 17.625H11.125V16.5C11.125 15.0037 14.1287 14.25 15.625 14.25C17.1213 14.25 20.125 15.0037 20.125 16.5V17.625Z" fill="#011428"/>
</svg>
