<svg width="24" height="24" viewBox="0 0 24 24" fill="none" xmlns="http://www.w3.org/2000/svg">
<g clip-path="url(#clip0)">
<path d="M8.91884 20.8796C17.2213 20.8796 21.7612 14.0014 21.7612 8.03717C21.7612 7.84181 21.7573 7.64732 21.7485 7.45372C22.6298 6.8166 23.3959 6.02151 24 5.11642C23.1913 5.4759 22.3209 5.71791 21.4079 5.82703C22.3399 5.26822 23.0553 4.38425 23.3928 3.33044C22.5207 3.84744 21.5549 4.22321 20.5266 4.42605C19.7029 3.54868 18.5303 3 17.2319 3C14.7392 3 12.7178 5.02138 12.7178 7.51312C12.7178 7.86733 12.7574 8.21185 12.8349 8.54229C9.08341 8.35353 5.75698 6.55743 3.531 3.82633C3.14336 4.49337 2.91984 5.26822 2.91984 6.09499C2.91984 7.66096 3.71668 9.04346 4.92845 9.85218C4.18793 9.8293 3.49228 9.62602 2.88419 9.28766C2.88353 9.3066 2.88353 9.32506 2.88353 9.3453C2.88353 11.5312 4.43938 13.3564 6.50477 13.77C6.12548 13.8734 5.7264 13.9288 5.31455 13.9288C5.02415 13.9288 4.74123 13.9002 4.46622 13.8474C5.04087 15.6409 6.70717 16.9459 8.68279 16.9825C7.13793 18.1933 5.19179 18.9145 3.07669 18.9145C2.71281 18.9145 2.35332 18.8938 2 18.852C3.99762 20.1324 6.36968 20.8796 8.91907 20.8796" fill="#011428"/>
</g>
<defs>
<clipPath id="clip0">
<rect width="24" height="24" fill="white"/>
</clipPath>
</defs>
</svg>
