<svg width="20" height="20" viewBox="0 0 20 20" fill="none" xmlns="http://www.w3.org/2000/svg">
<path d="M9.88131 14.1667C10.7723 14.1667 11.5014 13.4167 11.5014 12.5C11.5014 11.5833 10.7723 10.8333 9.88131 10.8333C8.99028 10.8333 8.26126 11.5833 8.26126 12.5C8.26126 13.4167 8.99028 14.1667 9.88131 14.1667ZM14.7414 6.66667H13.9314V5C13.9314 2.7 12.117 0.833336 9.88131 0.833336C7.92302 0.833336 6.28791 2.26554 5.91232 4.16667C6.64122 4.16667 6.2362 4.16667 6.2362 4.16667H7.04623C7.04623 4.16667 7.45124 4.16667 7.50414 4.16667C7.84169 3.1496 8.77949 2.41667 9.88131 2.41667C11.2664 2.41667 12.3924 3.575 12.3924 5V6.66667H5.02117C4.13014 6.66667 3.40112 7.41667 3.40112 8.33334V16.6667C3.40112 17.5833 4.13014 18.3333 5.02117 18.3333H14.7414C15.6325 18.3333 16.3615 17.5833 16.3615 16.6667V8.33334C16.3615 7.41667 15.6325 6.66667 14.7414 6.66667ZM14.7414 16.6667H5.02117V8.33334H14.7414V16.6667Z" fill="white"/>
</svg>
